# Tiled2Unity generated file. Do not modify by hand.
# Wavefront file for 'JetpackLevel1_mesh_0004.obj'

# Vertices (Count = 64)
v -71 -3 0
v -72 -3 0
v -72 -2 0
v -71 -2 0
v -72 -3 0
v -73 -3 0
v -73 -2 0
v -72 -2 0
v -74 -3 0
v -75 -3 0
v -75 -2 0
v -74 -2 0
v -75 -3 0
v -76 -3 0
v -76 -2 0
v -75 -2 0
v -76 -3 0
v -77 -3 0
v -77 -2 0
v -76 -2 0
v -77 -3 0
v -78 -3 0
v -78 -2 0
v -77 -2 0
v -65 -10 0
v -66 -10 0
v -66 -9 0
v -65 -9 0
v -56 -17 0
v -57 -17 0
v -57 -16 0
v -56 -16 0
v -81 -17 0
v -82 -17 0
v -82 -16 0
v -81 -16 0
v -63 -18 0
v -64 -18 0
v -64 -17 0
v -63 -17 0
v -51 -21 0
v -52 -21 0
v -52 -20 0
v -51 -20 0
v -67 -31 0
v -68 -31 0
v -68 -30 0
v -67 -30 0
v -45 -37 0
v -46 -37 0
v -46 -36 0
v -45 -36 0
v -13 -44 0
v -14 -44 0
v -14 -43 0
v -13 -43 0
v -21 -44 0
v -22 -44 0
v -22 -43 0
v -21 -43 0
v -26 -44 0
v -27 -44 0
v -27 -43 0
v -26 -43 0

# Texture cooridinates (Count = 15)
vt 0.8235294 0.125
vt 0.8823529 0.125
vt 0.8823529 0.25
vt 0.8235294 0.25
vt 0.8823529 0.375
vt 0.8235294 0.375
vt 0.9411765 0.25
vt 0.9411765 0.375
vt 0.8235294 0.75
vt 0.8823529 0.75
vt 0.8823529 0.875
vt 0.8235294 0.875
vt 0.9411765 0.125
vt 0.9411765 0.75
vt 0.9411765 0.875

# Normal
vn 0 0 -1

# Mesh description
g JetpackLevel1_mesh_0004

# Faces
f 1/1/1 2/2/1 3/3/1 4/4/1
f 5/4/1 6/3/1 7/5/1 8/6/1
f 9/1/1 10/2/1 11/3/1 12/4/1
f 13/3/1 14/7/1 15/8/1 16/5/1
f 17/4/1 18/3/1 19/5/1 20/6/1
f 21/1/1 22/2/1 23/3/1 24/4/1
f 25/3/1 26/7/1 27/8/1 28/5/1
f 29/3/1 30/7/1 31/8/1 32/5/1
f 33/1/1 34/2/1 35/3/1 36/4/1
f 37/9/1 38/10/1 39/11/1 40/12/1
f 41/4/1 42/3/1 43/5/1 44/6/1
f 45/2/1 46/13/1 47/7/1 48/3/1
f 49/1/1 50/2/1 51/3/1 52/4/1
f 53/3/1 54/7/1 55/8/1 56/5/1
f 57/1/1 58/2/1 59/3/1 60/4/1
f 61/10/1 62/14/1 63/15/1 64/11/1

