# Tiled2Unity generated file. Do not modify by hand.
# Wavefront file for 'Large-Platform_mesh_0001.obj'

# Vertices (Count = 16)
v 0 -1 0
v -1 -1 0
v -1 0 0
v 0 0 0
v -1 -1 0
v -2 -1 0
v -2 0 0
v -1 0 0
v -2 -1 0
v -3 -1 0
v -3 0 0
v -2 0 0
v -3 -1 0
v -4 -1 0
v -4 0 0
v -3 0 0

# Texture cooridinates (Count = 8)
vt 0.4705882 0.5
vt 0.5294118 0.5
vt 0.5294118 0.625
vt 0.4705882 0.625
vt 0.5294118 0.75
vt 0.4705882 0.75
vt 0.5882353 0.5
vt 0.5882353 0.625

# Normal
vn 0 0 -1

# Mesh description
g Large-Platform_mesh_0001

# Faces
f 1/1/1 2/2/1 3/3/1 4/4/1
f 5/4/1 6/3/1 7/5/1 8/6/1
f 9/4/1 10/3/1 11/5/1 12/6/1
f 13/2/1 14/7/1 15/8/1 16/3/1

